<mxfile host="drawio-plugin" modified="2022-03-28T20:13:58.389Z" agent="5.0 (Windows NT 6.2; Win64; x64) AppleWebKit/537.36 (KHTML, like Gecko) Chrome/89.0.4389.114 Safari/537.36" etag="vJCgHwPJYml2HBBh8b0_" version="15.5.4" type="embed"><diagram id="0I0VukblKlxJ_Cq4e2iu" name="Page-1"><mxGraphModel dx="1071" dy="743" grid="1" gridSize="10" guides="1" tooltips="1" connect="1" arrows="1" fold="1" page="1" pageScale="1" pageWidth="827" pageHeight="1169" math="0" shadow="0"><root><mxCell id="0"/><mxCell id="1" parent="0"/><mxCell id="gttoPk71XVY2xCl2nvXh-9" style="edgeStyle=orthogonalEdgeStyle;rounded=0;orthogonalLoop=1;jettySize=auto;html=1;entryX=0.5;entryY=0;entryDx=0;entryDy=0;" parent="1" source="gttoPk71XVY2xCl2nvXh-1" target="gttoPk71XVY2xCl2nvXh-2" edge="1"><mxGeometry relative="1" as="geometry"/></mxCell><mxCell id="gttoPk71XVY2xCl2nvXh-1" value="Start" style="ellipse;whiteSpace=wrap;html=1;" parent="1" vertex="1"><mxGeometry x="338" y="40" width="120" height="80" as="geometry"/></mxCell><mxCell id="gttoPk71XVY2xCl2nvXh-10" style="edgeStyle=orthogonalEdgeStyle;rounded=0;orthogonalLoop=1;jettySize=auto;html=1;" parent="1" source="gttoPk71XVY2xCl2nvXh-2" target="gttoPk71XVY2xCl2nvXh-3" edge="1"><mxGeometry relative="1" as="geometry"/></mxCell><mxCell id="gttoPk71XVY2xCl2nvXh-2" value="Wprowadź: Płeć&lt;br&gt;Wprowadź: Wiek" style="shape=parallelogram;perimeter=parallelogramPerimeter;whiteSpace=wrap;html=1;fixedSize=1;" parent="1" vertex="1"><mxGeometry x="310" y="180" width="176" height="40" as="geometry"/></mxCell><mxCell id="gttoPk71XVY2xCl2nvXh-14" style="edgeStyle=orthogonalEdgeStyle;rounded=0;orthogonalLoop=1;jettySize=auto;html=1;exitX=1;exitY=0.5;exitDx=0;exitDy=0;entryX=0.5;entryY=0;entryDx=0;entryDy=0;" parent="1" source="gttoPk71XVY2xCl2nvXh-3" target="gttoPk71XVY2xCl2nvXh-4" edge="1"><mxGeometry relative="1" as="geometry"/></mxCell><mxCell id="gttoPk71XVY2xCl2nvXh-3" value="Mężczyzna czy Kobieta" style="rhombus;whiteSpace=wrap;html=1;" parent="1" vertex="1"><mxGeometry x="313" y="320" width="170" height="160" as="geometry"/></mxCell><mxCell id="gttoPk71XVY2xCl2nvXh-25" style="edgeStyle=orthogonalEdgeStyle;rounded=0;orthogonalLoop=1;jettySize=auto;html=1;entryX=1;entryY=0.5;entryDx=0;entryDy=0;exitX=1;exitY=0.5;exitDx=0;exitDy=0;" parent="1" source="gttoPk71XVY2xCl2nvXh-4" target="gttoPk71XVY2xCl2nvXh-16" edge="1"><mxGeometry relative="1" as="geometry"><mxPoint x="750" y="770" as="targetPoint"/><Array as="points"><mxPoint x="740" y="590"/><mxPoint x="740" y="790"/></Array></mxGeometry></mxCell><mxCell id="gttoPk71XVY2xCl2nvXh-27" style="edgeStyle=orthogonalEdgeStyle;rounded=0;orthogonalLoop=1;jettySize=auto;html=1;entryX=0.5;entryY=0;entryDx=0;entryDy=0;" parent="1" source="gttoPk71XVY2xCl2nvXh-4" target="gttoPk71XVY2xCl2nvXh-15" edge="1"><mxGeometry relative="1" as="geometry"><Array as="points"><mxPoint x="430" y="590"/><mxPoint x="430" y="700"/><mxPoint x="245" y="700"/></Array></mxGeometry></mxCell><mxCell id="gttoPk71XVY2xCl2nvXh-4" value="Wiek &amp;gt;&amp;nbsp; 60" style="rhombus;whiteSpace=wrap;html=1;" parent="1" vertex="1"><mxGeometry x="458" y="510" width="170" height="160" as="geometry"/></mxCell><mxCell id="gttoPk71XVY2xCl2nvXh-12" style="edgeStyle=orthogonalEdgeStyle;rounded=0;orthogonalLoop=1;jettySize=auto;html=1;exitX=0.5;exitY=0;exitDx=0;exitDy=0;entryX=0;entryY=0.5;entryDx=0;entryDy=0;" parent="1" source="gttoPk71XVY2xCl2nvXh-5" target="gttoPk71XVY2xCl2nvXh-3" edge="1"><mxGeometry relative="1" as="geometry"/></mxCell><mxCell id="gttoPk71XVY2xCl2nvXh-26" style="edgeStyle=orthogonalEdgeStyle;rounded=0;orthogonalLoop=1;jettySize=auto;html=1;exitX=1;exitY=0.5;exitDx=0;exitDy=0;" parent="1" source="gttoPk71XVY2xCl2nvXh-5" target="gttoPk71XVY2xCl2nvXh-16" edge="1"><mxGeometry relative="1" as="geometry"><Array as="points"><mxPoint x="360" y="590"/><mxPoint x="360" y="720"/><mxPoint x="543" y="720"/></Array></mxGeometry></mxCell><mxCell id="gttoPk71XVY2xCl2nvXh-28" style="edgeStyle=orthogonalEdgeStyle;rounded=0;orthogonalLoop=1;jettySize=auto;html=1;entryX=0;entryY=0.5;entryDx=0;entryDy=0;exitX=0;exitY=0.5;exitDx=0;exitDy=0;" parent="1" source="gttoPk71XVY2xCl2nvXh-5" target="gttoPk71XVY2xCl2nvXh-15" edge="1"><mxGeometry relative="1" as="geometry"><Array as="points"><mxPoint x="30" y="590"/><mxPoint x="30" y="790"/></Array></mxGeometry></mxCell><mxCell id="gttoPk71XVY2xCl2nvXh-5" value="Wiek &amp;gt;&amp;nbsp; 65" style="rhombus;whiteSpace=wrap;html=1;" parent="1" vertex="1"><mxGeometry x="160" y="510" width="170" height="160" as="geometry"/></mxCell><mxCell id="gttoPk71XVY2xCl2nvXh-22" value="" style="edgeStyle=orthogonalEdgeStyle;rounded=0;orthogonalLoop=1;jettySize=auto;html=1;" parent="1" source="gttoPk71XVY2xCl2nvXh-15" target="gttoPk71XVY2xCl2nvXh-18" edge="1"><mxGeometry relative="1" as="geometry"/></mxCell><mxCell id="gttoPk71XVY2xCl2nvXh-15" value="Wyświetl: PRACA" style="shape=parallelogram;perimeter=parallelogramPerimeter;whiteSpace=wrap;html=1;fixedSize=1;" parent="1" vertex="1"><mxGeometry x="130" y="770" width="230" height="40" as="geometry"/></mxCell><mxCell id="gttoPk71XVY2xCl2nvXh-21" style="edgeStyle=orthogonalEdgeStyle;rounded=0;orthogonalLoop=1;jettySize=auto;html=1;entryX=0.5;entryY=0;entryDx=0;entryDy=0;" parent="1" source="gttoPk71XVY2xCl2nvXh-16" target="gttoPk71XVY2xCl2nvXh-18" edge="1"><mxGeometry relative="1" as="geometry"/></mxCell><mxCell id="gttoPk71XVY2xCl2nvXh-16" value="Wyświetl: EMERYTURA" style="shape=parallelogram;perimeter=parallelogramPerimeter;whiteSpace=wrap;html=1;fixedSize=1;" parent="1" vertex="1"><mxGeometry x="428" y="770" width="230" height="40" as="geometry"/></mxCell><mxCell id="gttoPk71XVY2xCl2nvXh-20" style="edgeStyle=orthogonalEdgeStyle;rounded=0;orthogonalLoop=1;jettySize=auto;html=1;entryX=0.5;entryY=0;entryDx=0;entryDy=0;" parent="1" source="gttoPk71XVY2xCl2nvXh-18" target="gttoPk71XVY2xCl2nvXh-19" edge="1"><mxGeometry relative="1" as="geometry"/></mxCell><mxCell id="gttoPk71XVY2xCl2nvXh-18" value="Wyświetl: Koniec Programu" style="shape=parallelogram;perimeter=parallelogramPerimeter;whiteSpace=wrap;html=1;fixedSize=1;" parent="1" vertex="1"><mxGeometry x="258" y="860" width="280" height="60" as="geometry"/></mxCell><mxCell id="gttoPk71XVY2xCl2nvXh-19" value="STOP&lt;br&gt;" style="ellipse;whiteSpace=wrap;html=1;" parent="1" vertex="1"><mxGeometry x="338" y="1030" width="120" height="80" as="geometry"/></mxCell><mxCell id="gttoPk71XVY2xCl2nvXh-29" value="TAK" style="text;html=1;align=center;verticalAlign=middle;resizable=0;points=[];autosize=1;strokeColor=none;fillColor=none;" parent="1" vertex="1"><mxGeometry x="628" y="560" width="40" height="20" as="geometry"/></mxCell><mxCell id="gttoPk71XVY2xCl2nvXh-30" value="TAK" style="text;html=1;align=center;verticalAlign=middle;resizable=0;points=[];autosize=1;strokeColor=none;fillColor=none;" parent="1" vertex="1"><mxGeometry x="320" y="560" width="40" height="20" as="geometry"/></mxCell><mxCell id="gttoPk71XVY2xCl2nvXh-31" value="NIE" style="text;html=1;align=center;verticalAlign=middle;resizable=0;points=[];autosize=1;strokeColor=none;fillColor=none;" parent="1" vertex="1"><mxGeometry x="420" y="560" width="40" height="20" as="geometry"/></mxCell><mxCell id="gttoPk71XVY2xCl2nvXh-32" value="NIE" style="text;html=1;align=center;verticalAlign=middle;resizable=0;points=[];autosize=1;strokeColor=none;fillColor=none;" parent="1" vertex="1"><mxGeometry x="100" y="560" width="40" height="20" as="geometry"/></mxCell><mxCell id="2" value="Kobieta" style="text;html=1;align=center;verticalAlign=middle;resizable=0;points=[];autosize=1;strokeColor=none;fillColor=none;" vertex="1" parent="1"><mxGeometry x="478" y="370" width="60" height="20" as="geometry"/></mxCell><mxCell id="3" value="Mężczyzna" style="text;html=1;align=center;verticalAlign=middle;resizable=0;points=[];autosize=1;strokeColor=none;fillColor=none;" vertex="1" parent="1"><mxGeometry x="230" y="370" width="80" height="20" as="geometry"/></mxCell></root></mxGraphModel></diagram></mxfile>